<svg width="63" height="58" viewBox="0 0 63 58" fill="none" xmlns="http://www.w3.org/2000/svg">
<g filter="url(#filter0_dii_2051_67)">
<path d="M35.6846 0C38.9848 0 41.9676 2.04374 43.2676 5.19531L44.1191 7.25977C44.805 8.92226 46.3792 10 48.1201 10C54.1288 10.0002 58.9998 15.0609 59 21.3037V35.7139C59 43.6036 52.8439 50 45.25 50H17.75C10.1561 50 4 43.6036 4 35.7139V21.3037C4.00023 15.0609 8.8712 10.0002 14.8799 10C16.6208 10 18.195 8.92226 18.8809 7.25977L19.7324 5.19531C21.0324 2.04374 24.0152 0 27.3154 0H35.6846ZM31.5 17.8213C26.5028 17.8213 22.5002 22.0219 22.5 27.1426C22.5 32.2634 26.5027 36.4639 31.5 36.4639C36.4973 36.4639 40.5 32.2634 40.5 27.1426C40.4998 22.0219 36.4972 17.8213 31.5 17.8213ZM31.5 19.3213C35.6153 19.3213 38.9998 22.7958 39 27.1426C39 31.4895 35.6154 34.9639 31.5 34.9639C27.3846 34.9639 24 31.4895 24 27.1426C24.0002 22.7958 27.3847 19.3213 31.5 19.3213Z" fill="#95B4C6"/>
</g>
<defs>
<filter id="filter0_dii_2051_67" x="0" y="-4" width="63" height="62" filterUnits="userSpaceOnUse" color-interpolation-filters="sRGB">
<feFlood flood-opacity="0" result="BackgroundImageFix"/>
<feColorMatrix in="SourceAlpha" type="matrix" values="0 0 0 0 0 0 0 0 0 0 0 0 0 0 0 0 0 0 127 0" result="hardAlpha"/>
<feOffset dy="4"/>
<feGaussianBlur stdDeviation="2"/>
<feComposite in2="hardAlpha" operator="out"/>
<feColorMatrix type="matrix" values="0 0 0 0 0 0 0 0 0 0 0 0 0 0 0 0 0 0 0.25 0"/>
<feBlend mode="normal" in2="BackgroundImageFix" result="effect1_dropShadow_2051_67"/>
<feBlend mode="normal" in="SourceGraphic" in2="effect1_dropShadow_2051_67" result="shape"/>
<feColorMatrix in="SourceAlpha" type="matrix" values="0 0 0 0 0 0 0 0 0 0 0 0 0 0 0 0 0 0 127 0" result="hardAlpha"/>
<feOffset dy="4"/>
<feGaussianBlur stdDeviation="2"/>
<feComposite in2="hardAlpha" operator="arithmetic" k2="-1" k3="1"/>
<feColorMatrix type="matrix" values="0 0 0 0 0 0 0 0 0 0 0 0 0 0 0 0 0 0 0.25 0"/>
<feBlend mode="normal" in2="shape" result="effect2_innerShadow_2051_67"/>
<feColorMatrix in="SourceAlpha" type="matrix" values="0 0 0 0 0 0 0 0 0 0 0 0 0 0 0 0 0 0 127 0" result="hardAlpha"/>
<feOffset dx="4" dy="-4"/>
<feGaussianBlur stdDeviation="2"/>
<feComposite in2="hardAlpha" operator="arithmetic" k2="-1" k3="1"/>
<feColorMatrix type="matrix" values="0 0 0 0 1 0 0 0 0 1 0 0 0 0 1 0 0 0 0.25 0"/>
<feBlend mode="normal" in2="effect2_innerShadow_2051_67" result="effect3_innerShadow_2051_67"/>
</filter>
</defs>
</svg>
