<svg width="60" height="60" viewBox="0 0 60 60" fill="none" xmlns="http://www.w3.org/2000/svg">
<g filter="url(#filter0_dii_2093_90)">
<path d="M36.5642 30.4394C35.762 31.4013 34.7583 32.1752 33.6239 32.7062C32.4896 33.2372 31.2525 33.5125 30 33.5125C28.7475 33.5125 27.5104 33.2372 26.3761 32.7062C25.2417 32.1752 24.238 31.4013 23.4358 30.4394C23.2786 30.2505 23.0857 30.0943 22.8682 29.9799C22.6506 29.8655 22.4127 29.795 22.1679 29.7726C21.9231 29.7501 21.6763 29.7761 21.4416 29.849C21.2068 29.922 20.9888 30.0404 20.7998 30.1976C20.6108 30.3548 20.4547 30.5477 20.3403 30.7653C20.2258 30.9828 20.1554 31.2208 20.1329 31.4655C20.0876 31.9599 20.2405 32.452 20.558 32.8336C21.7112 34.2187 23.155 35.3332 24.7871 36.098C26.4191 36.8628 28.1994 37.2592 30.0017 37.2592C31.8041 37.2592 33.5844 36.8628 35.2164 36.098C36.8484 35.3332 38.2922 34.2187 39.4455 32.8336C39.6145 32.6461 39.7438 32.4263 39.8257 32.1875C39.9075 31.9487 39.9403 31.6959 39.9219 31.4441C39.9036 31.1923 39.8345 30.9469 39.7189 30.7225C39.6032 30.4981 39.4434 30.2994 39.249 30.1383C39.0546 29.9773 38.8297 29.8572 38.5877 29.7853C38.3457 29.7134 38.0917 29.6911 37.8409 29.7199C37.5901 29.7487 37.3478 29.8279 37.1283 29.9527C36.9089 30.0776 36.717 30.2455 36.5642 30.4464V30.4394ZM23.6811 24.7493C24.1755 24.75 24.6591 24.6042 25.0706 24.3302C25.4822 24.0562 25.8033 23.6664 25.9935 23.21C26.1836 22.7536 26.2342 22.2511 26.139 21.766C26.0437 21.2809 25.8068 20.8348 25.4581 20.4843C25.1095 20.1337 24.6648 19.8943 24.1802 19.7963C23.6955 19.6984 23.1928 19.7462 22.7353 19.9339C22.2779 20.1215 21.8863 20.4405 21.6101 20.8505C21.3339 21.2606 21.1853 21.7433 21.1833 22.2377C21.1904 22.8992 21.4554 23.5319 21.9219 24.001C22.3885 24.4701 23.0196 24.7386 23.6811 24.7493ZM36.2567 20.0715C35.2234 20.0274 34.2045 20.3264 33.359 20.922C32.5134 21.5175 31.8887 22.3762 31.5823 23.364C31.5532 23.5536 31.5833 23.7476 31.6684 23.9195C31.7535 24.0914 31.8896 24.2329 32.058 24.3246C32.2265 24.4164 32.4191 24.454 32.6097 24.4324C32.8003 24.4107 32.9796 24.3308 33.1232 24.2035L33.8694 23.5402C34.5638 23.0403 35.3977 22.7713 36.2532 22.7713C37.1088 22.7713 37.9427 23.0403 38.6371 23.5402L39.3695 24.1966C39.5134 24.3261 39.6936 24.4083 39.8858 24.4318C40.0779 24.4554 40.2727 24.4193 40.4436 24.3283C40.6145 24.2374 40.7533 24.0961 40.8411 23.9236C40.929 23.751 40.9616 23.5557 40.9345 23.364C40.6396 22.3685 40.0173 21.5017 39.1682 20.9042C38.3192 20.3066 37.2933 20.0132 36.2567 20.0715ZM30 6C26.0444 6 22.1776 7.17298 18.8886 9.37061C15.5996 11.5682 13.0362 14.6918 11.5224 18.3463C10.0087 22.0009 9.6126 26.0222 10.3843 29.9018C11.156 33.7814 13.0608 37.3451 15.8579 40.1421C18.6549 42.9392 22.2186 44.844 26.0982 45.6157C29.9778 46.3874 33.9992 45.9913 37.6537 44.4776C41.3082 42.9638 44.4318 40.4004 46.6294 37.1114C48.827 33.8224 50 29.9556 50 26C50 20.6957 47.8929 15.6086 44.1421 11.8579C40.3914 8.10714 35.3043 6 30 6ZM30 42.2515C26.7885 42.2515 23.6491 41.2992 20.9788 39.515C18.3086 37.7307 16.2273 35.1948 14.9983 32.2277C13.7693 29.2607 13.4478 25.9958 14.0743 22.846C14.7009 19.6962 16.2473 16.8029 18.5182 14.532C20.7891 12.2612 23.6824 10.7147 26.8322 10.0881C29.982 9.46159 33.2468 9.78315 36.2139 11.0121C39.1809 12.2411 41.7169 14.3224 43.5011 16.9926C45.2854 19.6629 46.2377 22.8023 46.2377 26.0138C46.2295 30.3178 44.5161 34.4431 41.4727 37.4865C38.4293 40.5299 34.304 42.2433 30 42.2515Z" fill="#6E7F99"/>
</g>
<defs>
<filter id="filter0_dii_2093_90" x="0" y="0" width="60" height="60" filterUnits="userSpaceOnUse" color-interpolation-filters="sRGB">
<feFlood flood-opacity="0" result="BackgroundImageFix"/>
<feColorMatrix in="SourceAlpha" type="matrix" values="0 0 0 0 0 0 0 0 0 0 0 0 0 0 0 0 0 0 127 0" result="hardAlpha"/>
<feOffset dy="4"/>
<feGaussianBlur stdDeviation="5"/>
<feComposite in2="hardAlpha" operator="out"/>
<feColorMatrix type="matrix" values="0 0 0 0 0 0 0 0 0 0 0 0 0 0 0 0 0 0 0.25 0"/>
<feBlend mode="normal" in2="BackgroundImageFix" result="effect1_dropShadow_2093_90"/>
<feBlend mode="normal" in="SourceGraphic" in2="effect1_dropShadow_2093_90" result="shape"/>
<feColorMatrix in="SourceAlpha" type="matrix" values="0 0 0 0 0 0 0 0 0 0 0 0 0 0 0 0 0 0 127 0" result="hardAlpha"/>
<feOffset dy="4"/>
<feGaussianBlur stdDeviation="2"/>
<feComposite in2="hardAlpha" operator="arithmetic" k2="-1" k3="1"/>
<feColorMatrix type="matrix" values="0 0 0 0 0 0 0 0 0 0 0 0 0 0 0 0 0 0 0.25 0"/>
<feBlend mode="normal" in2="shape" result="effect2_innerShadow_2093_90"/>
<feColorMatrix in="SourceAlpha" type="matrix" values="0 0 0 0 0 0 0 0 0 0 0 0 0 0 0 0 0 0 127 0" result="hardAlpha"/>
<feOffset dx="4" dy="-4"/>
<feGaussianBlur stdDeviation="2"/>
<feComposite in2="hardAlpha" operator="arithmetic" k2="-1" k3="1"/>
<feColorMatrix type="matrix" values="0 0 0 0 1 0 0 0 0 1 0 0 0 0 1 0 0 0 0.25 0"/>
<feBlend mode="normal" in2="effect2_innerShadow_2093_90" result="effect3_innerShadow_2093_90"/>
</filter>
</defs>
</svg>
