<svg width="63" height="63" viewBox="0 0 63 63" fill="none" xmlns="http://www.w3.org/2000/svg">
<g filter="url(#filter0_dii_2051_49)">
<path d="M31.5 0C46.6878 0 59 12.3122 59 27.5C59 42.6878 46.6878 55 31.5 55C26.6729 55 22.1308 53.7548 18.1836 51.5664C17.9423 51.4327 17.7075 51.4264 17.54 51.4854L11.0859 53.7656C7.13221 55.1624 3.32362 51.3541 4.7207 47.4004L7.0957 40.6807C7.15266 40.5195 7.15031 40.2941 7.0293 40.0586C5.09261 36.2919 4 32.0206 4 27.5C4 12.3122 16.3122 1.61065e-07 31.5 0ZM18.8369 24.4297C17.071 24.4297 15.6389 25.8611 15.6387 27.627C15.6387 29.393 17.0709 30.8252 18.8369 30.8252C20.6028 30.825 22.0342 29.3929 22.0342 27.627C22.0339 25.8612 20.6026 24.4299 18.8369 24.4297ZM31.6279 24.4297C29.8621 24.4297 28.4299 25.8611 28.4297 27.627C28.4297 29.393 29.8619 30.8252 31.6279 30.8252C33.3938 30.825 34.8252 29.3928 34.8252 27.627C34.825 25.8613 33.3936 24.4299 31.6279 24.4297ZM44.418 24.4297C42.6522 24.4298 41.2209 25.8612 41.2207 27.627C41.2207 29.3929 42.652 30.8251 44.418 30.8252C46.184 30.8252 47.6162 29.393 47.6162 27.627C47.616 25.8611 46.1838 24.4297 44.418 24.4297Z" fill="#95B4C6"/>
</g>
<defs>
<filter id="filter0_dii_2051_49" x="0" y="-4" width="63" height="67" filterUnits="userSpaceOnUse" color-interpolation-filters="sRGB">
<feFlood flood-opacity="0" result="BackgroundImageFix"/>
<feColorMatrix in="SourceAlpha" type="matrix" values="0 0 0 0 0 0 0 0 0 0 0 0 0 0 0 0 0 0 127 0" result="hardAlpha"/>
<feOffset dy="4"/>
<feGaussianBlur stdDeviation="2"/>
<feComposite in2="hardAlpha" operator="out"/>
<feColorMatrix type="matrix" values="0 0 0 0 0 0 0 0 0 0 0 0 0 0 0 0 0 0 0.25 0"/>
<feBlend mode="normal" in2="BackgroundImageFix" result="effect1_dropShadow_2051_49"/>
<feBlend mode="normal" in="SourceGraphic" in2="effect1_dropShadow_2051_49" result="shape"/>
<feColorMatrix in="SourceAlpha" type="matrix" values="0 0 0 0 0 0 0 0 0 0 0 0 0 0 0 0 0 0 127 0" result="hardAlpha"/>
<feOffset dy="4"/>
<feGaussianBlur stdDeviation="2"/>
<feComposite in2="hardAlpha" operator="arithmetic" k2="-1" k3="1"/>
<feColorMatrix type="matrix" values="0 0 0 0 0 0 0 0 0 0 0 0 0 0 0 0 0 0 0.25 0"/>
<feBlend mode="normal" in2="shape" result="effect2_innerShadow_2051_49"/>
<feColorMatrix in="SourceAlpha" type="matrix" values="0 0 0 0 0 0 0 0 0 0 0 0 0 0 0 0 0 0 127 0" result="hardAlpha"/>
<feOffset dx="4" dy="-4"/>
<feGaussianBlur stdDeviation="2"/>
<feComposite in2="hardAlpha" operator="arithmetic" k2="-1" k3="1"/>
<feColorMatrix type="matrix" values="0 0 0 0 1 0 0 0 0 1 0 0 0 0 1 0 0 0 0.25 0"/>
<feBlend mode="normal" in2="effect2_innerShadow_2051_49" result="effect3_innerShadow_2051_49"/>
</filter>
</defs>
</svg>
