<svg width="100" height="100" viewBox="0 0 100 100" fill="none" xmlns="http://www.w3.org/2000/svg">
<g opacity="0.8" filter="url(#filter0_dii_2078_173)">
<path d="M50 6C42.2271 6.01476 34.6263 8.28761 28.1234 12.5417C21.6204 16.7958 16.4959 22.8476 13.3742 29.9598C10.2524 37.0721 9.26814 44.9379 10.5412 52.5992C11.8142 60.2604 15.2896 67.3865 20.5441 73.1094C24.2969 77.1738 28.8516 80.4175 33.9212 82.636C38.9908 84.8546 44.4654 86 50 86C55.5346 86 61.0092 84.8546 66.0788 82.636C71.1484 80.4175 75.7031 77.1738 79.456 73.1094C84.7104 67.3865 88.1858 60.2604 89.4588 52.5992C90.7319 44.9379 89.7476 37.0721 86.6258 29.9598C83.5041 22.8476 78.3796 16.7958 71.8766 12.5417C65.3737 8.28761 57.7728 6.01476 50 6ZM50 78.0745C41.6981 78.0619 33.7247 74.8323 27.7578 69.0652C29.5694 64.6588 32.6512 60.8899 36.6116 58.2375C40.572 55.5852 45.2322 54.169 50 54.169C54.7678 54.169 59.428 55.5852 63.3884 58.2375C67.3488 60.8899 70.4306 64.6588 72.2422 69.0652C66.2752 74.8323 58.3019 78.0619 50 78.0745ZM41.9848 38.0331C41.9848 36.4492 42.4549 34.9009 43.3356 33.5839C44.2163 32.267 45.4681 31.2406 46.9327 30.6344C48.3973 30.0283 50.0089 29.8697 51.5637 30.1787C53.1185 30.4877 54.5467 31.2504 55.6676 32.3704C56.7886 33.4904 57.5519 34.9173 57.8612 36.4708C58.1705 38.0242 58.0118 39.6344 57.4051 41.0977C56.7984 42.5611 55.7711 43.8118 54.453 44.6917C53.1349 45.5717 51.5853 46.0414 50 46.0414C47.8742 46.0414 45.8355 45.1977 44.3324 43.6958C42.8292 42.194 41.9848 40.157 41.9848 38.0331ZM77.6926 62.0579C74.1119 55.9387 68.6009 51.1788 62.0228 48.524C64.0634 46.2122 65.393 43.3612 65.852 40.3132C66.311 37.2652 65.88 34.1495 64.6108 31.3402C63.3415 28.5308 61.2878 26.1471 58.6961 24.475C56.1045 22.8029 53.085 21.9134 50 21.9134C46.915 21.9134 43.8955 22.8029 41.3039 24.475C38.7122 26.1471 36.6585 28.5308 35.3892 31.3402C34.1199 34.1495 33.689 37.2652 34.148 40.3132C34.607 43.3612 35.9366 46.2122 37.9772 48.524C31.3991 51.1788 25.8881 55.9387 22.3074 62.0579C19.4538 57.2013 17.946 51.6731 17.9391 46.0414C17.9391 37.5457 21.3169 29.3979 27.3295 23.3906C33.3421 17.3832 41.4969 14.0083 50 14.0083C58.5031 14.0083 66.6579 17.3832 72.6705 23.3906C78.6831 29.3979 82.0609 37.5457 82.0609 46.0414C82.054 51.6731 80.5462 57.2013 77.6926 62.0579Z" fill="#6E7F99"/>
</g>
<defs>
<filter id="filter0_dii_2078_173" x="0" y="0" width="100" height="100" filterUnits="userSpaceOnUse" color-interpolation-filters="sRGB">
<feFlood flood-opacity="0" result="BackgroundImageFix"/>
<feColorMatrix in="SourceAlpha" type="matrix" values="0 0 0 0 0 0 0 0 0 0 0 0 0 0 0 0 0 0 127 0" result="hardAlpha"/>
<feOffset dy="4"/>
<feGaussianBlur stdDeviation="5"/>
<feComposite in2="hardAlpha" operator="out"/>
<feColorMatrix type="matrix" values="0 0 0 0 0 0 0 0 0 0 0 0 0 0 0 0 0 0 0.25 0"/>
<feBlend mode="normal" in2="BackgroundImageFix" result="effect1_dropShadow_2078_173"/>
<feBlend mode="normal" in="SourceGraphic" in2="effect1_dropShadow_2078_173" result="shape"/>
<feColorMatrix in="SourceAlpha" type="matrix" values="0 0 0 0 0 0 0 0 0 0 0 0 0 0 0 0 0 0 127 0" result="hardAlpha"/>
<feOffset dy="4"/>
<feGaussianBlur stdDeviation="2"/>
<feComposite in2="hardAlpha" operator="arithmetic" k2="-1" k3="1"/>
<feColorMatrix type="matrix" values="0 0 0 0 0 0 0 0 0 0 0 0 0 0 0 0 0 0 0.25 0"/>
<feBlend mode="normal" in2="shape" result="effect2_innerShadow_2078_173"/>
<feColorMatrix in="SourceAlpha" type="matrix" values="0 0 0 0 0 0 0 0 0 0 0 0 0 0 0 0 0 0 127 0" result="hardAlpha"/>
<feOffset dx="4" dy="-4"/>
<feGaussianBlur stdDeviation="2"/>
<feComposite in2="hardAlpha" operator="arithmetic" k2="-1" k3="1"/>
<feColorMatrix type="matrix" values="0 0 0 0 1 0 0 0 0 1 0 0 0 0 1 0 0 0 0.25 0"/>
<feBlend mode="normal" in2="effect2_innerShadow_2078_173" result="effect3_innerShadow_2078_173"/>
</filter>
</defs>
</svg>
