<svg width="590" height="634" viewBox="0 0 590 634" fill="none" xmlns="http://www.w3.org/2000/svg">
<g filter="url(#filter0_dii_2533_582)">
<path d="M34.0883 182.672C19.659 187.732 10 201.354 10 216.645V590.034C10 606.516 23.3611 619.877 39.8428 619.877C56.3245 619.877 69.6855 606.516 69.6855 590.034V573.81C69.6855 553.928 85.8033 537.81 105.686 537.81H484.314C504.197 537.81 520.314 553.928 520.314 573.81V590.034C520.314 606.516 533.676 619.877 550.157 619.877C566.639 619.877 580 606.516 580 590.034V42.0297C580 17.2226 555.498 -0.150745 532.088 8.05747L34.0883 182.672Z" fill="#E4D8DC"/>
</g>
<defs>
<filter id="filter0_dii_2533_582" x="0" y="-4" width="590" height="637.877" filterUnits="userSpaceOnUse" color-interpolation-filters="sRGB">
<feFlood flood-opacity="0" result="BackgroundImageFix"/>
<feColorMatrix in="SourceAlpha" type="matrix" values="0 0 0 0 0 0 0 0 0 0 0 0 0 0 0 0 0 0 127 0" result="hardAlpha"/>
<feOffset dy="4"/>
<feGaussianBlur stdDeviation="5"/>
<feComposite in2="hardAlpha" operator="out"/>
<feColorMatrix type="matrix" values="0 0 0 0 0 0 0 0 0 0 0 0 0 0 0 0 0 0 0.5 0"/>
<feBlend mode="normal" in2="BackgroundImageFix" result="effect1_dropShadow_2533_582"/>
<feBlend mode="normal" in="SourceGraphic" in2="effect1_dropShadow_2533_582" result="shape"/>
<feColorMatrix in="SourceAlpha" type="matrix" values="0 0 0 0 0 0 0 0 0 0 0 0 0 0 0 0 0 0 127 0" result="hardAlpha"/>
<feOffset dx="-10" dy="-10"/>
<feGaussianBlur stdDeviation="7"/>
<feComposite in2="hardAlpha" operator="arithmetic" k2="-1" k3="1"/>
<feColorMatrix type="matrix" values="0 0 0 0 0.792157 0 0 0 0 0.717647 0 0 0 0 0.713726 0 0 0 1 0"/>
<feBlend mode="normal" in2="shape" result="effect2_innerShadow_2533_582"/>
<feColorMatrix in="SourceAlpha" type="matrix" values="0 0 0 0 0 0 0 0 0 0 0 0 0 0 0 0 0 0 127 0" result="hardAlpha"/>
<feOffset dy="4"/>
<feGaussianBlur stdDeviation="7"/>
<feComposite in2="hardAlpha" operator="arithmetic" k2="-1" k3="1"/>
<feColorMatrix type="matrix" values="0 0 0 0 0.894118 0 0 0 0 0.847059 0 0 0 0 0.862745 0 0 0 1 0"/>
<feBlend mode="normal" in2="effect2_innerShadow_2533_582" result="effect3_innerShadow_2533_582"/>
</filter>
</defs>
</svg>
