<svg xmlns="http://www.w3.org/2000/svg" fill="none" viewBox="73.64538181818182 27.108279599999996 43.442424242424245 39.964" style="max-height: 500px" width="43.442424242424245" height="39.964">
<g data-figma-bg-blur-radius="325.294" filter="url(#filter0_d_2177_225)">
<path shape-rendering="crispEdges" fill-opacity="0.7" fill="url(#paint0_radial_2177_225)" d="M78.2354 46.3235C78.2354 36.6585 86.0704 28.8235 95.7354 28.8235C105.4 28.8235 113.235 36.6585 113.235 46.3235C113.235 55.9885 105.4 63.8235 95.7354 63.8235C86.0704 63.8235 78.2354 55.9885 78.2354 46.3235Z"/>
<path shape-rendering="crispEdges" stroke-width="16.4706" stroke="white" d="M95.7354 37.0588C100.852 37.0588 105 41.2067 105 46.3235C105 51.4402 100.852 55.5881 95.7354 55.5881C90.6186 55.5881 86.4707 51.4402 86.4707 46.3235C86.4707 41.2067 90.6186 37.0588 95.7354 37.0588Z"/>
</g>
<g filter="url(#filter1_d_2177_225)">
<circle fill="url(#paint1_linear_2177_225)" r="11.3021" cy="46.3963" cx="95.8079"/>
<circle stroke-width="10.2512" stroke-opacity="0.3" stroke="white" r="6.17647" cy="46.3963" cx="95.8079"/>
</g>
<g filter="url(#filter2_d_2177_225)">
<mask height="13" width="13" y="40" x="89" maskUnits="userSpaceOnUse" style="mask-type:alpha" id="mask0_2177_225">
<rect fill="white" height="12.1042" width="12.1042" y="40.1985" x="89.7559"/>
</mask>
<g mask="url(#mask0_2177_225)">
<path fill="white" d="M95.8213 42.1653C95.6364 42.1653 95.4789 42.1001 95.3487 41.9696C95.2183 41.8395 95.1531 41.682 95.1531 41.4971V41.1188C95.1531 40.9339 95.2183 40.7762 95.3487 40.6457C95.4789 40.5156 95.6364 40.4506 95.8213 40.4506C96.0062 40.4506 96.1639 40.5156 96.2944 40.6457C96.4245 40.7762 96.4896 40.9339 96.4896 41.1188V41.4971C96.4896 41.682 96.4245 41.8395 96.2944 41.9696C96.1639 42.1001 96.0062 42.1653 95.8213 42.1653ZM95.8213 52.0504C95.6364 52.0504 95.4789 51.9853 95.3487 51.8552C95.2183 51.7248 95.1531 51.5671 95.1531 51.3821V51.0039C95.1531 50.819 95.2183 50.6614 95.3487 50.5313C95.4789 50.4009 95.6364 50.3356 95.8213 50.3356C96.0062 50.3356 96.1639 50.4009 96.2944 50.5313C96.4245 50.6614 96.4896 50.819 96.4896 51.0039V51.3821C96.4896 51.5671 96.4245 51.7248 96.2944 51.8552C96.1639 51.9853 96.0062 52.0504 95.8213 52.0504ZM100.562 46.9061C100.377 46.9061 100.22 46.8409 100.09 46.7104C99.9591 46.5803 99.8939 46.4228 99.8939 46.2379C99.8939 46.0529 99.9591 45.8953 100.09 45.7648C100.22 45.6347 100.377 45.5696 100.562 45.5696H100.94C101.125 45.5696 101.283 45.6347 101.413 45.7648C101.544 45.8953 101.609 46.0529 101.609 46.2379C101.609 46.4228 101.544 46.5803 101.413 46.7104C101.283 46.8409 101.125 46.9061 100.94 46.9061H100.562ZM90.677 46.9061C90.4921 46.9061 90.3346 46.8409 90.2045 46.7104C90.074 46.5803 90.0088 46.4228 90.0088 46.2379C90.0088 46.0529 90.074 45.8953 90.2045 45.7648C90.3346 45.6347 90.4921 45.5696 90.677 45.5696H91.0553C91.2402 45.5696 91.3979 45.6347 91.5284 45.7648C91.6585 45.8953 91.7235 46.0529 91.7235 46.2379C91.7235 46.4228 91.6585 46.5803 91.5284 46.7104C91.3979 46.8409 91.2402 46.9061 91.0553 46.9061H90.677ZM98.8852 43.1488C98.7507 43.0143 98.6834 42.8546 98.6834 42.6697C98.6834 42.4847 98.7507 42.325 98.8852 42.1905L98.9734 42.1023C99.0995 41.9762 99.255 41.9131 99.44 41.9131C99.6249 41.9131 99.7846 41.9804 99.9191 42.1149C100.054 42.2494 100.121 42.4091 100.121 42.594C100.121 42.7789 100.054 42.9386 99.9191 43.0731L99.8308 43.1614C99.7047 43.2875 99.5492 43.3505 99.3643 43.3505C99.1794 43.3505 99.0197 43.2833 98.8852 43.1488ZM91.6983 50.3861C91.5638 50.2516 91.4966 50.0919 91.4966 49.9069C91.4966 49.722 91.5638 49.5623 91.6983 49.4278L91.7866 49.3396C91.9127 49.2135 92.0682 49.1504 92.2531 49.1504C92.438 49.1504 92.5977 49.2177 92.7322 49.3522C92.8667 49.4867 92.934 49.6464 92.934 49.8313C92.934 50.0162 92.8667 50.1759 92.7322 50.3104L92.644 50.3987C92.5179 50.5248 92.3624 50.5878 92.1775 50.5878C91.9925 50.5878 91.8328 50.5206 91.6983 50.3861ZM98.9608 50.3861L98.8726 50.2978C98.7465 50.1717 98.6834 50.0162 98.6834 49.8313C98.6834 49.6464 98.7507 49.4867 98.8852 49.3522C99.0197 49.2177 99.1794 49.1504 99.3643 49.1504C99.5492 49.1504 99.7089 49.2177 99.8434 49.3522L99.9317 49.4404C100.058 49.5665 100.121 49.722 100.121 49.9069C100.121 50.0919 100.054 50.2516 99.9191 50.3861C99.7846 50.5206 99.6249 50.5878 99.44 50.5878C99.255 50.5878 99.0953 50.5206 98.9608 50.3861ZM91.7488 43.1488L91.6857 43.0857C91.5596 42.9597 91.4966 42.8041 91.4966 42.6192C91.4966 42.4343 91.5638 42.2746 91.6983 42.1401C91.8328 42.0056 91.9925 41.9384 92.1775 41.9384C92.3624 41.9384 92.5221 42.0056 92.6566 42.1401L92.7196 42.2031C92.8457 42.3292 92.9087 42.4847 92.9087 42.6697C92.9087 42.8546 92.8415 43.0143 92.707 43.1488C92.5725 43.2833 92.4128 43.3505 92.2279 43.3505C92.043 43.3505 91.8833 43.2833 91.7488 43.1488ZM95.8087 49.6548C94.8673 49.6548 94.0645 49.3227 93.4005 48.6587C92.7364 47.9947 92.4044 47.1919 92.4044 46.2505C92.4044 45.309 92.7364 44.5063 93.4005 43.8422C94.0645 43.1782 94.8673 42.8462 95.8087 42.8462C96.7501 42.8462 97.5529 43.1782 98.2169 43.8422C98.881 44.5063 99.213 45.309 99.213 46.2505C99.213 47.1919 98.881 47.9947 98.2169 48.6587C97.5529 49.3227 96.7501 49.6548 95.8087 49.6548Z"/>
</g>
</g>
<defs>
<filter color-interpolation-filters="sRGB" filterUnits="userSpaceOnUse" height="685.588" width="685.588" y="-296.471" x="-247.059" id="filter0_d_2177_225">
<feFlood result="BackgroundImageFix" flood-opacity="0"/>
<feColorMatrix result="hardAlpha" values="0 0 0 0 0 0 0 0 0 0 0 0 0 0 0 0 0 0 127 0" type="matrix" in="SourceAlpha"/>
<feOffset dy="49.4118"/>
<feGaussianBlur stdDeviation="39.1176"/>
<feComposite operator="out" in2="hardAlpha"/>
<feColorMatrix values="0 0 0 0 0.0867708 0 0 0 0 0.115317 0 0 0 0 0.141667 0 0 0 0.08 0" type="matrix"/>
<feBlend result="effect1_dropShadow_2177_225" in2="BackgroundImageFix" mode="normal"/>
<feBlend result="shape" in2="effect1_dropShadow_2177_225" in="SourceGraphic" mode="normal"/>
</filter>
<clipPath transform="translate(247.059 296.471)" id="bgblur_0_2177_225_clip_path"><path d="M78.2354 46.3235C78.2354 36.6585 86.0704 28.8235 95.7354 28.8235C105.4 28.8235 113.235 36.6585 113.235 46.3235C113.235 55.9885 105.4 63.8235 95.7354 63.8235C86.0704 63.8235 78.2354 55.9885 78.2354 46.3235Z"/>
</clipPath><filter color-interpolation-filters="sRGB" filterUnits="userSpaceOnUse" height="158.486" width="113.193" y="35.0942" x="39.2117" id="filter1_d_2177_225">
<feFlood result="BackgroundImageFix" flood-opacity="0"/>
<feColorMatrix result="hardAlpha" values="0 0 0 0 0 0 0 0 0 0 0 0 0 0 0 0 0 0 127 0" type="matrix" in="SourceAlpha"/>
<feOffset dy="90.5882"/>
<feGaussianBlur stdDeviation="22.6471"/>
<feComposite operator="out" in2="hardAlpha"/>
<feColorMatrix values="0 0 0 0 1 0 0 0 0 0.807843 0 0 0 0 0.317647 0 0 0 0.15 0" type="matrix"/>
<feBlend result="effect1_dropShadow_2177_225" in2="BackgroundImageFix" mode="normal"/>
<feBlend result="shape" in2="effect1_dropShadow_2177_225" in="SourceGraphic" mode="normal"/>
</filter>
<filter color-interpolation-filters="sRGB" filterUnits="userSpaceOnUse" height="16.0104" width="16.0102" y="40.4506" x="87.8035" id="filter2_d_2177_225">
<feFlood result="BackgroundImageFix" flood-opacity="0"/>
<feColorMatrix result="hardAlpha" values="0 0 0 0 0 0 0 0 0 0 0 0 0 0 0 0 0 0 127 0" type="matrix" in="SourceAlpha"/>
<feOffset dy="2.20528"/>
<feGaussianBlur stdDeviation="1.10264"/>
<feComposite operator="out" in2="hardAlpha"/>
<feColorMatrix values="0 0 0 0 0 0 0 0 0 0 0 0 0 0 0 0 0 0 0.15 0" type="matrix"/>
<feBlend result="effect1_dropShadow_2177_225" in2="BackgroundImageFix" mode="normal"/>
<feBlend result="shape" in2="effect1_dropShadow_2177_225" in="SourceGraphic" mode="normal"/>
</filter>
<radialGradient gradientTransform="translate(95.7354 46.3235) rotate(90) scale(17.5)" gradientUnits="userSpaceOnUse" r="1" cy="0" cx="0" id="paint0_radial_2177_225">
<stop stop-color="white"/>
<stop stop-color="white" offset="1"/>
</radialGradient>
<linearGradient gradientUnits="userSpaceOnUse" y2="37.5933" x2="91.9312" y1="57.6984" x1="99.0603" id="paint1_linear_2177_225">
<stop stop-color="#F3B14E"/>
<stop stop-color="#FFCE51" offset="1"/>
</linearGradient>
</defs>
</svg>