<svg viewBox="0 0 44 44" xmlns="http://www.w3.org/2000/svg">
  <circle cx="22" cy="22" r="22" fill="#5865F2"/>
  <path d="M30.5 14.5c-.97-.44-1.98-.77-3.05-.95-.13.23-.29.54-.4.74-1.13-.17-2.28-.17-3.4 0-.11-.2-.27-.51-.4-.74-1.07.18-2.08.51-3.05.95-1.92 2.85-2.5 5.63-2.24 8.4 1.3.64 2.57 1.04 3.88 1.18-.09-.15-.18-.31-.27-.47 1.36.25 2.65.25 3.95 0-.09.16-.18.32-.27.47 1.31-.14 2.58-.54 3.88-1.18.26-3.22.34-5.68-2.63-8.4zm-8.3 6.7c-.87 0-1.59-.79-1.59-1.76 0-.97.7-1.77 1.59-1.77.87 0 1.59.79 1.59 1.77 0 .97-.72 1.76-1.59 1.76zm7.6 0c-.87 0-1.58-.79-1.58-1.76 0-.97.7-1.77 1.58-1.77.88 0 1.59.79 1.59 1.77 0 .97-.71 1.76-1.59 1.76z" fill="#FFFFFF"/>
</svg>
