<svg width="49" height="37" viewBox="0 0 49 37" fill="none" xmlns="http://www.w3.org/2000/svg">
<path d="M41.4816 3.06926C38.3047 1.62391 34.9519 0.592929 31.5072 0.00210731C31.476 -0.00309908 31.4439 0.00139751 31.4154 0.014979C31.3869 0.0285604 31.3633 0.0505597 31.3479 0.0779517C30.9161 0.836396 30.4384 1.82844 30.1046 2.60509C26.3916 2.04736 22.615 2.04736 18.9021 2.60509C18.5313 1.7392 18.11 0.895399 17.6403 0.0779517C17.625 0.0505597 17.6014 0.0285604 17.5729 0.014979C17.5443 0.00139751 17.5123 -0.00309908 17.4811 0.00210731C14.0358 0.59066 10.6824 1.62215 7.50663 3.06926C7.47932 3.07931 7.45651 3.09867 7.44231 3.12387C1.09076 12.5255 -0.651788 21.6967 0.20264 30.7525C0.208765 30.797 0.230202 30.8344 0.266952 30.8647C3.96632 33.5776 8.10309 35.6497 12.5015 36.993C12.5326 37.0027 12.5659 37.0023 12.5968 36.992C12.6276 36.9816 12.6543 36.9618 12.673 36.9353C13.6183 35.6611 14.4533 34.3172 15.1781 32.9034C15.1932 32.8743 15.1983 32.8412 15.1928 32.8089C15.1873 32.7766 15.1714 32.747 15.1475 32.7244L15.0924 32.6911C13.7735 32.1873 12.4958 31.5839 11.2704 30.886C11.2362 30.8668 11.2108 30.8353 11.1994 30.798C11.1879 30.7607 11.1915 30.7205 11.2091 30.6857L11.2551 30.6281C11.5144 30.436 11.7675 30.2388 12.0146 30.0365C12.0362 30.0193 12.0622 30.0082 12.0897 30.0045C12.1172 30.0007 12.1452 30.0045 12.1708 30.0153C20.1914 33.6437 28.8735 33.6437 36.7961 30.0153C36.8224 30.0032 36.8516 29.9988 36.8803 30.0026C36.9091 30.0064 36.9361 30.0181 36.9584 30.0365C37.2054 30.2388 37.4586 30.436 37.7179 30.6281C37.7394 30.6427 37.7568 30.6625 37.7685 30.6857C37.7801 30.7089 37.7856 30.7346 37.7844 30.7604C37.7831 30.7863 37.7753 30.8114 37.7615 30.8333C37.7477 30.8553 37.7285 30.8734 37.7056 30.886C36.4855 31.5949 35.2057 32.1979 33.8806 32.688C33.8595 32.6956 33.8403 32.7077 33.8244 32.7234C33.8086 32.7391 33.7964 32.7581 33.7887 32.7791C33.7813 32.7992 33.7782 32.8208 33.7798 32.8422C33.7814 32.8637 33.7876 32.8845 33.7979 32.9034C34.5329 34.3141 35.3751 35.6611 36.2999 36.9353C36.3186 36.9618 36.3453 36.9816 36.3762 36.992C36.407 37.0023 36.4404 37.0027 36.4714 36.993C40.8785 35.6571 45.0226 33.5845 48.7244 30.8647C48.7428 30.8519 48.7581 30.8351 48.7692 30.8157C48.7803 30.7963 48.787 30.7747 48.7887 30.7525C49.8116 20.2829 47.0768 11.1876 41.5429 3.1269C41.5381 3.11314 41.53 3.10072 41.5194 3.09069C41.5087 3.08066 41.4958 3.07331 41.4816 3.06926ZM16.3755 25.2371C13.9592 25.2371 11.9717 23.0406 11.9717 20.3466C11.9717 17.6526 13.9225 15.4531 16.3755 15.4531C18.8469 15.4531 20.8161 17.6678 20.7794 20.3466C20.7794 23.0406 18.8286 25.2371 16.3755 25.2371ZM32.6556 25.2371C30.2424 25.2371 28.2518 23.0406 28.2518 20.3466C28.2518 17.6526 30.2026 15.4531 32.6556 15.4531C35.127 15.4531 37.0993 17.6678 37.0594 20.3466C37.0594 23.0406 35.127 25.2371 32.6556 25.2371Z" fill="#4C5BFF"/>
</svg>
