<svg width="22" height="18" viewBox="0 0 22 18" fill="none" xmlns="http://www.w3.org/2000/svg">
<path fill-rule="evenodd" clip-rule="evenodd" d="M21.2185 1.33568C21.542 1.07692 21.5944 0.604953 21.3357 0.281506C21.0769 -0.0419401 20.605 -0.0943811 20.2815 0.164376L16.9562 2.82464C16.7746 2.66151 16.5885 2.50148 16.3983 2.34574C14.8268 1.05902 12.891 2.76301e-05 10.75 2.76301e-05C8.60908 2.76301e-05 6.67328 1.05902 5.10176 2.34574C3.52166 3.63949 2.22965 5.22868 1.36144 6.43804L1.28984 6.53762C0.767179 7.26386 0.336942 7.86168 0.336942 8.75003C0.336942 9.63837 0.767179 10.2362 1.28984 10.9624L1.36144 11.062C1.9061 11.8207 2.61754 12.7288 3.46227 13.6198L0.281506 16.1644C-0.0419401 16.4231 -0.0943812 16.8951 0.164376 17.2185C0.423133 17.542 0.895102 17.5944 1.21855 17.3357L21.2185 1.33568ZM7.41178 10.4602L8.62453 9.48996C8.54386 9.25823 8.50003 9.00925 8.50003 8.75003C8.50003 7.50739 9.50739 6.50003 10.75 6.50003C11.1862 6.50003 11.5934 6.62415 11.9382 6.839L13.1507 5.86904C12.5003 5.32647 11.6633 5.00003 10.75 5.00003C8.67896 5.00003 7.00003 6.67896 7.00003 8.75003C7.00003 9.36605 7.14857 9.94738 7.41178 10.4602Z" fill="#5F6368"/>
<path d="M19.4452 5.51484L14.4173 9.53716C14.0556 11.2303 12.5511 12.5 10.75 12.5L10.7139 12.4999L6.29805 16.0325C7.61737 16.8896 9.12457 17.5 10.75 17.5C12.891 17.5 14.8268 16.441 16.3983 15.1543C17.9784 13.8606 19.2704 12.2714 20.1386 11.062L20.2102 10.9624C20.7329 10.2362 21.1631 9.63837 21.1631 8.75003C21.1631 7.86168 20.7329 7.26386 20.2102 6.53762L20.1386 6.43804C19.9311 6.14894 19.6993 5.83813 19.4452 5.51484Z" fill="#5F6368"/>
</svg>
