<svg width="25" height="25" viewBox="0 0 25 25" fill="none" xmlns="http://www.w3.org/2000/svg">
<path d="M23.8636 11H21.4489V4C21.4489 1.79063 19.4141 0 16.9034 0H8.09659C5.58594 0 3.55114 1.79063 3.55114 4V11H1.13636C0.507812 11 0 11.4469 0 12V24C0 24.5531 0.507812 25 1.13636 25H23.8636C24.4922 25 25 24.5531 25 24V12C25 11.4469 24.4922 11 23.8636 11ZM13.4943 18.4062V20.0625C13.4943 20.2 13.3665 20.3125 13.2102 20.3125H11.7898C11.6335 20.3125 11.5057 20.2 11.5057 20.0625V18.4062C11.2125 18.221 10.9938 17.9588 10.8808 17.6572C10.7678 17.3556 10.7665 17.0302 10.8771 16.7279C10.9876 16.4256 11.2043 16.162 11.4959 15.975C11.7876 15.788 12.1391 15.6872 12.5 15.6872C12.8609 15.6872 13.2124 15.788 13.5041 15.975C13.7957 16.162 14.0124 16.4256 14.1229 16.7279C14.2335 17.0302 14.2322 17.3556 14.1192 17.6572C14.0062 17.9588 13.7875 18.221 13.4943 18.4062ZM18.892 11H6.10795V4C6.10795 3.03437 6.99929 2.25 8.09659 2.25H16.9034C18.0007 2.25 18.892 3.03437 18.892 4V11Z" fill="#5F6368" fill-opacity="0.67"/>
</svg>
