<svg xmlns="http://www.w3.org/2000/svg" fill="none" viewBox="73.0643153526971 79.24000000000001 116.10995850622406 127.35000000000001" style="max-height: 500px" width="116.10995850622406" height="127.35000000000001">
<g filter="url(#filter0_d_2270_336)">
<path fill="url(#paint0_radial_2270_336)" d="M176.596 143.718C176.596 165.034 158.012 182.314 135.087 182.314C112.162 182.314 93.5774 165.034 93.5774 143.718C93.5774 123.225 109.69 110.208 132.326 88.8288C133.874 87.3667 136.304 87.3614 137.858 88.8178C160.308 109.865 176.596 123.235 176.596 143.718Z"/>
<path stroke-width="5" stroke-opacity="0.25" stroke="white" d="M134.043 90.6467C134.631 90.0915 135.559 90.09 136.148 90.6418C147.469 101.256 156.963 109.69 163.699 118.048C170.362 126.314 174.096 134.239 174.096 143.718C174.096 163.485 156.806 179.814 135.087 179.815C113.368 179.815 96.0774 163.485 96.0774 143.718C96.0774 134.232 99.7697 126.393 106.407 118.177C113.127 109.86 122.621 101.435 134.043 90.6467Z"/>
</g>
<g filter="url(#filter1_f_2270_336)" opacity="0.8">
<path fill="url(#paint1_radial_2270_336)" d="M172.642 148.827C172.642 167.49 156.38 182.619 136.321 182.619C116.261 182.619 100 167.49 100 148.827C100 130.991 113.934 119.624 133.558 101.1C135.107 99.6379 137.539 99.6324 139.094 101.089C158.557 119.328 172.642 131.001 172.642 148.827Z"/>
</g>
<g style="mix-blend-mode:color-burn" filter="url(#filter2_f_2270_336)">
<path fill="url(#paint2_radial_2270_336)" d="M102.485 119.014C100.744 123.31 99.805 127.817 99.8049 132.76C99.8049 154.077 118.389 171.357 141.314 171.357C154.789 171.357 166.762 165.385 174.345 156.135C168.738 171.281 153.281 182.164 135.088 182.164C112.163 182.164 93.5785 164.884 93.5784 143.568C93.5784 134.352 96.8386 126.648 102.485 119.014Z"/>
</g>
<g style="mix-blend-mode:screen" opacity="0.3">
<ellipse fill="url(#paint3_radial_2270_336)" ry="36.6666" rx="39.434" cy="122.876" cx="148.786"/>
</g>
<g style="mix-blend-mode:screen" filter="url(#filter3_f_2270_336)" opacity="0.7">
<ellipse fill="url(#paint4_radial_2270_336)" ry="36.6666" rx="39.434" cy="159.542" cx="117.654"/>
</g>
<g filter="url(#filter4_f_2270_336)">
<path fill-opacity="0.8" fill="url(#paint5_radial_2270_336)" d="M115.987 126.756C109.387 141.376 115.62 146.779 110.487 146.779C110.487 146.779 105.72 137.558 105.72 129.373C105.72 123.203 116.141 110.998 124.098 104.619C126.628 102.592 128.719 104.674 126.955 107.394C124.104 111.793 120.194 117.435 115.987 126.756Z"/>
</g>
<g filter="url(#filter5_f_2270_336)">
<ellipse fill="#D3ADC3" ry="3.82911" rx="6.60002" cy="160.355" cx="117.82"/>
</g>
<g filter="url(#filter6_f_2270_336)">
<ellipse fill="#D3ADC3" ry="3.82911" rx="6.60002" cy="160.355" cx="151.554"/>
</g>
<g filter="url(#filter7_i_2270_336)">
<ellipse fill="#0B1939" ry="6.96202" rx="5.13335" cy="150.956" cx="120.754"/>
</g>
<ellipse fill="white" ry="1.7405" rx="1.46667" cy="148.519" cx="119.287"/>
<ellipse fill="#0B1939" ry="6.96202" rx="5.13335" cy="150.956" cx="148.62"/>
<ellipse fill="white" ry="1.7405" rx="1.46667" cy="147.823" cx="147.887"/>
<path fill="#0A1939" d="M132.044 160.871C131.634 160.723 131.172 160.926 131.09 161.354C131.011 161.77 130.999 162.198 131.056 162.621C131.147 163.302 131.413 163.952 131.832 164.512C132.251 165.073 132.809 165.526 133.456 165.833C134.104 166.139 134.821 166.29 135.544 166.271C136.267 166.251 136.974 166.063 137.603 165.722C138.231 165.381 138.761 164.899 139.146 164.317C139.531 163.736 139.759 163.073 139.81 162.387C139.841 161.96 139.803 161.532 139.699 161.118C139.592 160.698 139.121 160.523 138.722 160.692C138.301 160.871 138.128 161.368 138.178 161.823C138.194 161.974 138.197 162.127 138.186 162.279C138.154 162.711 138.01 163.128 137.768 163.495C137.525 163.861 137.191 164.165 136.795 164.38C136.399 164.595 135.954 164.713 135.498 164.725C135.043 164.738 134.591 164.643 134.183 164.45C133.775 164.256 133.424 163.971 133.16 163.618C132.896 163.265 132.728 162.856 132.671 162.426C132.65 162.275 132.644 162.122 132.652 161.97C132.675 161.513 132.474 161.027 132.044 160.871Z"/>
<defs>
<filter color-interpolation-filters="sRGB" filterUnits="userSpaceOnUse" height="114.585" width="103.019" y="81.7289" x="83.5774" id="filter0_d_2270_336">
<feFlood result="BackgroundImageFix" flood-opacity="0"/>
<feColorMatrix result="hardAlpha" values="0 0 0 0 0 0 0 0 0 0 0 0 0 0 0 0 0 0 127 0" type="matrix" in="SourceAlpha"/>
<feOffset dy="4"/>
<feGaussianBlur stdDeviation="5"/>
<feComposite operator="out" in2="hardAlpha"/>
<feColorMatrix values="0 0 0 0 0 0 0 0 0 0 0 0 0 0 0 0 0 0 0.25 0" type="matrix"/>
<feBlend result="effect1_dropShadow_2270_336" in2="BackgroundImageFix" mode="normal"/>
<feBlend result="shape" in2="effect1_dropShadow_2270_336" in="SourceGraphic" mode="normal"/>
</filter>
<filter color-interpolation-filters="sRGB" filterUnits="userSpaceOnUse" height="282.619" width="272.642" y="0" x="0" id="filter1_f_2270_336">
<feFlood result="BackgroundImageFix" flood-opacity="0"/>
<feBlend result="shape" in2="BackgroundImageFix" in="SourceGraphic" mode="normal"/>
<feGaussianBlur result="effect1_foregroundBlur_2270_336" stdDeviation="50"/>
</filter>
<filter color-interpolation-filters="sRGB" filterUnits="userSpaceOnUse" height="83.1494" width="100.767" y="109.014" x="83.5784" id="filter2_f_2270_336">
<feFlood result="BackgroundImageFix" flood-opacity="0"/>
<feBlend result="shape" in2="BackgroundImageFix" in="SourceGraphic" mode="normal"/>
<feGaussianBlur result="effect1_foregroundBlur_2270_336" stdDeviation="5"/>
</filter>
<filter color-interpolation-filters="sRGB" filterUnits="userSpaceOnUse" height="173.333" width="178.868" y="72.8759" x="28.2202" id="filter3_f_2270_336">
<feFlood result="BackgroundImageFix" flood-opacity="0"/>
<feBlend result="shape" in2="BackgroundImageFix" in="SourceGraphic" mode="normal"/>
<feGaussianBlur result="effect1_foregroundBlur_2270_336" stdDeviation="25"/>
</filter>
<filter color-interpolation-filters="sRGB" filterUnits="userSpaceOnUse" height="50.9719" width="29.8889" y="99.8066" x="101.72" id="filter4_f_2270_336">
<feFlood result="BackgroundImageFix" flood-opacity="0"/>
<feBlend result="shape" in2="BackgroundImageFix" in="SourceGraphic" mode="normal"/>
<feGaussianBlur result="effect1_foregroundBlur_2270_336" stdDeviation="2"/>
</filter>
<filter color-interpolation-filters="sRGB" filterUnits="userSpaceOnUse" height="15.6582" width="21.2" y="152.526" x="107.22" id="filter5_f_2270_336">
<feFlood result="BackgroundImageFix" flood-opacity="0"/>
<feBlend result="shape" in2="BackgroundImageFix" in="SourceGraphic" mode="normal"/>
<feGaussianBlur result="effect1_foregroundBlur_2270_336" stdDeviation="2"/>
</filter>
<filter color-interpolation-filters="sRGB" filterUnits="userSpaceOnUse" height="15.6582" width="21.2" y="152.526" x="140.954" id="filter6_f_2270_336">
<feFlood result="BackgroundImageFix" flood-opacity="0"/>
<feBlend result="shape" in2="BackgroundImageFix" in="SourceGraphic" mode="normal"/>
<feGaussianBlur result="effect1_foregroundBlur_2270_336" stdDeviation="2"/>
</filter>
<filter color-interpolation-filters="sRGB" filterUnits="userSpaceOnUse" height="17.924" width="10.2666" y="143.994" x="115.62" id="filter7_i_2270_336">
<feFlood result="BackgroundImageFix" flood-opacity="0"/>
<feBlend result="shape" in2="BackgroundImageFix" in="SourceGraphic" mode="normal"/>
<feColorMatrix result="hardAlpha" values="0 0 0 0 0 0 0 0 0 0 0 0 0 0 0 0 0 0 127 0" type="matrix" in="SourceAlpha"/>
<feOffset dy="4"/>
<feGaussianBlur stdDeviation="2"/>
<feComposite k3="1" k2="-1" operator="arithmetic" in2="hardAlpha"/>
<feColorMatrix values="0 0 0 0 0 0 0 0 0 0 0 0 0 0 0 0 0 0 0.25 0" type="matrix"/>
<feBlend result="effect1_innerShadow_2270_336" in2="shape" mode="normal"/>
</filter>
<radialGradient gradientUnits="userSpaceOnUse" gradientTransform="matrix(57.9057 -55.7719 48.1777 43.2466 135.087 156.841)" r="1" cy="0" cx="0" id="paint0_radial_2270_336">
<stop stop-color="#FFE3E2" offset="0.0240385"/>
<stop stop-color="#E4D8DC" offset="0.252404"/>
<stop stop-color="#F5F6FF" offset="0.615385"/>
<stop stop-color="#95B4C6" offset="1"/>
</radialGradient>
<radialGradient gradientUnits="userSpaceOnUse" gradientTransform="matrix(50.6675 -48.8284 42.1554 37.8625 136.321 160.316)" r="1" cy="0" cx="0" id="paint1_radial_2270_336">
<stop stop-color="#B7C2E4" offset="0.109324"/>
<stop stop-color="#E4D8DC" offset="1"/>
</radialGradient>
<radialGradient gradientUnits="userSpaceOnUse" gradientTransform="matrix(57.905 -55.7728 48.1771 43.2474 135.087 156.69)" r="1" cy="0" cx="0" id="paint2_radial_2270_336">
<stop stop-color="#E4D8DC" offset="0.109324"/>
<stop stop-color="#FFFDE2" offset="1"/>
</radialGradient>
<radialGradient gradientUnits="userSpaceOnUse" gradientTransform="matrix(26.3585 30.8772 -7.51724 5.54807 148.786 122.876)" r="1" cy="0" cx="0" id="paint3_radial_2270_336">
<stop stop-color="white"/>
<stop stop-opacity="0.28" stop-color="#BDDBF1" offset="0.601048"/>
<stop stop-opacity="0" stop-color="#5686F5" offset="1"/>
</radialGradient>
<radialGradient gradientUnits="userSpaceOnUse" gradientTransform="matrix(18.8868 21.0351 -22.487 17.4561 117.654 159.542)" r="1" cy="0" cx="0" id="paint4_radial_2270_336">
<stop stop-color="white"/>
<stop stop-opacity="0.28" stop-color="#BDDBF1" offset="0.601048"/>
<stop stop-opacity="0" stop-color="#5686F5" offset="1"/>
</radialGradient>
<radialGradient gradientUnits="userSpaceOnUse" gradientTransform="matrix(0.724394 36.8987 -28.2971 2.94846 119.583 110.726)" r="1" cy="0" cx="0" id="paint5_radial_2270_336">
<stop stop-opacity="0.8" stop-color="white"/>
<stop stop-opacity="0.5" stop-color="white" offset="0.572674"/>
<stop stop-opacity="0" stop-color="white" offset="1"/>
</radialGradient>
</defs>
</svg>