<svg width="16" height="17" viewBox="0 0 16 17" fill="none" xmlns="http://www.w3.org/2000/svg">
<path fill-rule="evenodd" clip-rule="evenodd" d="M4.4 0C4.84183 0 5.2 0.362436 5.2 0.809524V1.61905H10.8V0.809524C10.8 0.362436 11.1582 0 11.6 0C12.0418 0 12.4 0.362436 12.4 0.809524V1.63903C14.4213 1.84211 16 3.56784 16 5.66667V12.9524C16 15.1878 14.2091 17 12 17H4C1.79086 17 0 15.1878 0 12.9524V5.66667C0 3.56784 1.57867 1.84211 3.6 1.63903V0.809524C3.6 0.362436 3.95817 0 4.4 0ZM1.73656 4.85714H14.2634C13.934 3.91389 13.045 3.2381 12 3.2381H4C2.95503 3.2381 2.06603 3.91389 1.73656 4.85714ZM14.4 6.47619H1.6V12.9524C1.6 14.2936 2.67452 15.381 4 15.381H12C13.3255 15.381 14.4 14.2936 14.4 12.9524V6.47619ZM3.2 8.90476C3.2 8.45767 3.55817 8.09524 4 8.09524H12C12.4418 8.09524 12.8 8.45767 12.8 8.90476C12.8 9.35185 12.4418 9.71429 12 9.71429H4C3.55817 9.71429 3.2 9.35185 3.2 8.90476Z" fill="#2B2B2B" fill-opacity="0.5"/>
</svg>
