<svg width="28" height="29" viewBox="0 0 28 29" fill="none" xmlns="http://www.w3.org/2000/svg">
<g filter="url(#filter0_dii_2104_130)">
<rect x="4.14209" width="20" height="20" rx="10" transform="rotate(0.808033 4.14209 0)" fill="#E4D8DC"/>
<rect x="4.63499" y="0.507001" width="19" height="19" rx="9.5" transform="rotate(0.808033 4.63499 0.507001)" stroke="white"/>
</g>
<path d="M13.8599 14H17.8599M11.6098 13.5621L17.1932 7.69207C17.5614 7.30499 17.5614 6.6774 17.1932 6.29031C16.825 5.90323 16.2281 5.90323 15.8599 6.29031L10.2764 12.1603C10.1227 12.3219 10.0458 12.4027 9.99085 12.497C9.94211 12.5807 9.9062 12.6718 9.88442 12.7672C9.85986 12.8747 9.85986 12.989 9.85986 13.2176V13.2558C9.85986 13.6668 10.1931 14 10.6041 14C10.8215 14 10.9302 14 11.0325 13.9742C11.1232 13.9513 11.2099 13.9135 11.2895 13.8623C11.3792 13.8045 11.456 13.7237 11.6098 13.5621Z" stroke="white" stroke-width="1.5" stroke-linecap="round" stroke-linejoin="round"/>
<defs>
<filter id="filter0_dii_2104_130" x="0" y="-1.85999" width="28" height="30" filterUnits="userSpaceOnUse" color-interpolation-filters="sRGB">
<feFlood flood-opacity="0" result="BackgroundImageFix"/>
<feColorMatrix in="SourceAlpha" type="matrix" values="0 0 0 0 0 0 0 0 0 0 0 0 0 0 0 0 0 0 127 0" result="hardAlpha"/>
<feOffset dy="4"/>
<feGaussianBlur stdDeviation="2"/>
<feComposite in2="hardAlpha" operator="out"/>
<feColorMatrix type="matrix" values="0 0 0 0 0 0 0 0 0 0 0 0 0 0 0 0 0 0 0.25 0"/>
<feBlend mode="normal" in2="BackgroundImageFix" result="effect1_dropShadow_2104_130"/>
<feBlend mode="normal" in="SourceGraphic" in2="effect1_dropShadow_2104_130" result="shape"/>
<feColorMatrix in="SourceAlpha" type="matrix" values="0 0 0 0 0 0 0 0 0 0 0 0 0 0 0 0 0 0 127 0" result="hardAlpha"/>
<feOffset dy="1"/>
<feGaussianBlur stdDeviation="2"/>
<feComposite in2="hardAlpha" operator="arithmetic" k2="-1" k3="1"/>
<feColorMatrix type="matrix" values="0 0 0 0 0 0 0 0 0 0 0 0 0 0 0 0 0 0 0.25 0"/>
<feBlend mode="normal" in2="shape" result="effect2_innerShadow_2104_130"/>
<feColorMatrix in="SourceAlpha" type="matrix" values="0 0 0 0 0 0 0 0 0 0 0 0 0 0 0 0 0 0 127 0" result="hardAlpha"/>
<feOffset dx="2" dy="-2"/>
<feGaussianBlur stdDeviation="2"/>
<feComposite in2="hardAlpha" operator="arithmetic" k2="-1" k3="1"/>
<feColorMatrix type="matrix" values="0 0 0 0 1 0 0 0 0 1 0 0 0 0 1 0 0 0 0.25 0"/>
<feBlend mode="normal" in2="effect2_innerShadow_2104_130" result="effect3_innerShadow_2104_130"/>
</filter>
</defs>
</svg>
