<svg xmlns="http://www.w3.org/2000/svg" fill="none" viewBox="73.64538181818182 27.108279599999996 43.442424242424245 39.964" style="max-height: 500px" width="43.442424242424245" height="39.964">
<g data-figma-bg-blur-radius="325.294" filter="url(#filter0_d_2177_234)">
<path shape-rendering="crispEdges" fill-opacity="0.7" fill="url(#paint0_radial_2177_234)" d="M78.2354 46.3235C78.2354 36.6585 86.0704 28.8235 95.7354 28.8235C105.4 28.8235 113.235 36.6585 113.235 46.3235C113.235 55.9885 105.4 63.8235 95.7354 63.8235C86.0704 63.8235 78.2354 55.9885 78.2354 46.3235Z"/>
<path shape-rendering="crispEdges" stroke-width="16.4706" stroke="white" d="M95.7354 37.0588C100.852 37.0588 105 41.2067 105 46.3235C105 51.4402 100.852 55.5881 95.7354 55.5881C90.6186 55.5881 86.4707 51.4402 86.4707 46.3235C86.4707 41.2067 90.6186 37.0588 95.7354 37.0588Z"/>
</g>
<g filter="url(#filter1_d_2177_234)">
<circle fill="url(#paint1_linear_2177_234)" r="11.3021" cy="46.3966" cx="95.8079"/>
<circle fill-opacity="0.2" fill="black" r="11.3021" cy="46.3966" cx="95.8079"/>
<circle stroke-width="10.2512" stroke-opacity="0.3" stroke="white" r="6.17647" cy="46.3966" cx="95.8079"/>
</g>
<mask height="13" width="12" y="40" x="90" maskUnits="userSpaceOnUse" style="mask-type:alpha" id="mask0_2177_234">
<rect fill="#D9D9D9" height="11.375" width="11.375" y="40.636" x="90.0479"/>
</mask>
<g mask="url(#mask0_2177_234)">
<g filter="url(#filter2_d_2177_234)">
<path fill="white" d="M95.7351 50.7431C94.5107 50.7431 93.468 50.3126 92.607 49.4515C91.7459 48.5905 91.3154 47.5478 91.3154 46.3234C91.3154 45.3676 91.5782 44.5184 92.1036 43.7759C92.6288 43.0333 93.3337 42.5041 94.2184 42.1881C94.6529 42.0301 95.0044 42.0578 95.273 42.2711C95.5416 42.4843 95.6206 42.8635 95.51 43.4086C95.4942 43.4955 95.4823 43.5803 95.4744 43.6631C95.4665 43.7462 95.4626 43.8312 95.4626 43.9181C95.4626 44.6527 95.7292 45.2826 96.2626 45.8077C96.7957 46.3332 97.4334 46.5959 98.176 46.5959C98.2629 46.5959 98.3458 46.5939 98.4248 46.5898C98.5038 46.586 98.5828 46.5762 98.6618 46.5604C99.2384 46.4577 99.6276 46.5544 99.8291 46.8505C100.03 47.1468 100.044 47.5083 99.8704 47.9349C99.5386 48.7485 98.9936 49.4199 98.2352 49.9492C97.4769 50.4784 96.6435 50.7431 95.7351 50.7431Z"/>
</g>
</g>
<defs>
<filter color-interpolation-filters="sRGB" filterUnits="userSpaceOnUse" height="685.588" width="685.588" y="-296.471" x="-247.059" id="filter0_d_2177_234">
<feFlood result="BackgroundImageFix" flood-opacity="0"/>
<feColorMatrix result="hardAlpha" values="0 0 0 0 0 0 0 0 0 0 0 0 0 0 0 0 0 0 127 0" type="matrix" in="SourceAlpha"/>
<feOffset dy="49.4118"/>
<feGaussianBlur stdDeviation="39.1176"/>
<feComposite operator="out" in2="hardAlpha"/>
<feColorMatrix values="0 0 0 0 0.0867708 0 0 0 0 0.115317 0 0 0 0 0.141667 0 0 0 0.08 0" type="matrix"/>
<feBlend result="effect1_dropShadow_2177_234" in2="BackgroundImageFix" mode="normal"/>
<feBlend result="shape" in2="effect1_dropShadow_2177_234" in="SourceGraphic" mode="normal"/>
</filter>
<clipPath transform="translate(247.059 296.471)" id="bgblur_0_2177_234_clip_path"><path d="M78.2354 46.3235C78.2354 36.6585 86.0704 28.8235 95.7354 28.8235C105.4 28.8235 113.235 36.6585 113.235 46.3235C113.235 55.9885 105.4 63.8235 95.7354 63.8235C86.0704 63.8235 78.2354 55.9885 78.2354 46.3235Z"/>
</clipPath><filter color-interpolation-filters="sRGB" filterUnits="userSpaceOnUse" height="158.486" width="113.193" y="35.0945" x="39.2117" id="filter1_d_2177_234">
<feFlood result="BackgroundImageFix" flood-opacity="0"/>
<feColorMatrix result="hardAlpha" values="0 0 0 0 0 0 0 0 0 0 0 0 0 0 0 0 0 0 127 0" type="matrix" in="SourceAlpha"/>
<feOffset dy="90.5882"/>
<feGaussianBlur stdDeviation="22.6471"/>
<feComposite operator="out" in2="hardAlpha"/>
<feColorMatrix values="0 0 0 0 0.223529 0 0 0 0 0.286275 0 0 0 0 0.372549 0 0 0 0.15 0" type="matrix"/>
<feBlend result="effect1_dropShadow_2177_234" in2="BackgroundImageFix" mode="normal"/>
<feBlend result="shape" in2="effect1_dropShadow_2177_234" in="SourceGraphic" mode="normal"/>
</filter>
<filter color-interpolation-filters="sRGB" filterUnits="userSpaceOnUse" height="16.8911" width="16.9111" y="42.0873" x="87.1978" id="filter2_d_2177_234">
<feFlood result="BackgroundImageFix" flood-opacity="0"/>
<feColorMatrix result="hardAlpha" values="0 0 0 0 0 0 0 0 0 0 0 0 0 0 0 0 0 0 127 0" type="matrix" in="SourceAlpha"/>
<feOffset dy="4.11765"/>
<feGaussianBlur stdDeviation="2.05882"/>
<feComposite operator="out" in2="hardAlpha"/>
<feColorMatrix values="0 0 0 0 0 0 0 0 0 0 0 0 0 0 0 0 0 0 0.15 0" type="matrix"/>
<feBlend result="effect1_dropShadow_2177_234" in2="BackgroundImageFix" mode="normal"/>
<feBlend result="shape" in2="effect1_dropShadow_2177_234" in="SourceGraphic" mode="normal"/>
</filter>
<radialGradient gradientTransform="translate(95.7354 46.3235) rotate(90) scale(17.5)" gradientUnits="userSpaceOnUse" r="1" cy="0" cx="0" id="paint0_radial_2177_234">
<stop stop-color="white"/>
<stop stop-color="white" offset="1"/>
</radialGradient>
<linearGradient gradientUnits="userSpaceOnUse" y2="55.0287" x2="86.461" y1="55.13" x1="106.628" id="paint1_linear_2177_234">
<stop stop-color="#9098A3"/>
<stop stop-opacity="0.85" stop-color="#173256" offset="1"/>
</linearGradient>
</defs>
</svg>