<svg width="65" height="57" viewBox="0 0 65 57" fill="none" xmlns="http://www.w3.org/2000/svg">
<path d="M2 17.6C2 14.8386 4.23858 12.6 7 12.6H15.833C16.6329 12.6 17.3559 12.1234 17.6711 11.3882L20.9175 3.81767C21.3904 2.71493 22.4749 2 23.6747 2H32.303H40.9313C42.1312 2 43.2157 2.71493 43.6885 3.81767L46.9349 11.3882C47.2502 12.1234 47.9731 12.6 48.773 12.6H57.6061C60.3675 12.6 62.6061 14.8386 62.6061 17.6V50C62.6061 52.7614 60.3675 55 57.6061 55H7C4.23858 55 2 52.7614 2 50V17.6Z" stroke="#5A5959" stroke-width="4"/>
<ellipse cx="9.09091" cy="9.08571" rx="9.09091" ry="9.08571" transform="matrix(-1 0 0 1 41.394 21.6857)" stroke="#5A5959" stroke-width="4"/>
</svg>
