<svg width="17" height="27" viewBox="0 0 17 27" fill="none" xmlns="http://www.w3.org/2000/svg">
<path opacity="0.8" d="M5.65161 17.424C5.62761 17.28 5.60361 17.124 5.57961 16.956C5.57961 16.788 5.57961 16.62 5.57961 16.452C5.57961 15.708 5.69961 15.048 5.93961 14.472C6.17961 13.896 6.49161 13.38 6.87561 12.924C7.28361 12.444 7.70361 12 8.13561 11.592C8.59161 11.184 9.03561 10.788 9.46761 10.404C9.85161 10.068 10.1876 9.732 10.4756 9.396C10.7876 9.036 11.0396 8.676 11.2316 8.316C11.4236 7.932 11.5196 7.548 11.5196 7.164C11.5196 6.66 11.3876 6.228 11.1236 5.868C10.8836 5.484 10.5356 5.196 10.0796 5.004C9.64761 4.812 9.09561 4.716 8.42361 4.716C7.77561 4.716 7.19961 4.824 6.69561 5.04C6.19161 5.232 5.79561 5.52 5.50761 5.904C5.21961 6.288 5.03961 6.756 4.96761 7.308H-0.000390612C0.0476094 5.94 0.311609 4.788 0.791609 3.852C1.27161 2.916 1.90761 2.172 2.69961 1.62C3.49161 1.044 4.37961 0.635999 5.36361 0.395999C6.37161 0.132 7.40361 2.38419e-07 8.45961 2.38419e-07C9.85161 2.38419e-07 11.1716 0.24 12.4196 0.72C13.6676 1.176 14.6756 1.896 15.4436 2.88C16.2356 3.864 16.6316 5.172 16.6316 6.804C16.6316 7.668 16.4876 8.436 16.1996 9.108C15.9116 9.78 15.5156 10.416 15.0116 11.016C14.5076 11.616 13.9316 12.228 13.2836 12.852C12.8756 13.26 12.4676 13.656 12.0596 14.04C11.6516 14.424 11.3036 14.832 11.0156 15.264C10.7276 15.696 10.5476 16.236 10.4756 16.884C10.4756 16.956 10.4636 17.04 10.4396 17.136C10.4396 17.232 10.4396 17.328 10.4396 17.424H5.65161ZM8.06361 26.1C7.24761 26.1 6.51561 25.836 5.86761 25.308C5.24361 24.756 4.93161 23.952 4.93161 22.896C4.93161 21.888 5.24361 21.132 5.86761 20.628C6.51561 20.1 7.24761 19.836 8.06361 19.836C8.90361 19.836 9.63561 20.1 10.2596 20.628C10.8836 21.132 11.1956 21.888 11.1956 22.896C11.1956 23.952 10.8836 24.756 10.2596 25.308C9.63561 25.836 8.90361 26.1 8.06361 26.1Z" fill="#2B2B2B"/>
</svg>
