<svg width="65" height="65" viewBox="0 0 65 65" fill="none" xmlns="http://www.w3.org/2000/svg">
<g filter="url(#filter0_dii_2203_707)">
<path d="M32.5 6C28.1278 6.0083 23.8523 7.28678 20.1944 9.67971C16.5365 12.0726 13.654 15.4768 11.898 19.4774C10.142 23.4781 9.58833 27.9026 10.3044 32.212C11.0205 36.5215 12.9754 40.5299 15.931 43.749C18.042 46.0352 20.604 47.8598 23.4557 49.1078C26.3073 50.3557 29.3868 51 32.5 51C35.6132 51 38.6927 50.3557 41.5443 49.1078C44.396 47.8598 46.958 46.0352 49.069 43.749C52.0246 40.5299 53.9795 36.5215 54.6956 32.212C55.4117 27.9026 54.858 23.4781 53.102 19.4774C51.346 15.4768 48.4635 12.0726 44.8056 9.67971C41.1477 7.28678 36.8722 6.0083 32.5 6ZM32.5 46.5419C27.8302 46.5348 23.3452 44.7181 19.9887 41.4742C21.0078 38.9956 22.7413 36.8756 24.969 35.3836C27.1967 33.8917 29.8181 33.0951 32.5 33.0951C35.1819 33.0951 37.8033 33.8917 40.031 35.3836C42.2587 36.8756 43.9922 38.9956 45.0113 41.4742C41.6548 44.7181 37.1698 46.5348 32.5 46.5419ZM27.9914 24.0186C27.9914 23.1277 28.2559 22.2568 28.7513 21.516C29.2467 20.7752 29.9508 20.1978 30.7746 19.8569C31.5985 19.5159 32.505 19.4267 33.3796 19.6005C34.2542 19.7743 35.0575 20.2034 35.688 20.8334C36.3186 21.4633 36.748 22.266 36.9219 23.1398C37.0959 24.0136 37.0066 24.9194 36.6654 25.7425C36.3241 26.5656 35.7462 27.2691 35.0048 27.7641C34.2634 28.2591 33.3917 28.5233 32.5 28.5233C31.3043 28.5233 30.1575 28.0487 29.312 27.2039C28.4664 26.3591 27.9914 25.2133 27.9914 24.0186ZM48.0771 37.5326C46.063 34.0905 42.963 31.4131 39.2628 29.9197C40.4107 28.6194 41.1585 27.0157 41.4167 25.3012C41.675 23.5867 41.4325 21.8341 40.7185 20.2538C40.0046 18.6736 38.8494 17.3327 37.3916 16.3922C35.9338 15.4516 34.2353 14.9513 32.5 14.9513C30.7647 14.9513 29.0662 15.4516 27.6084 16.3922C26.1506 17.3327 24.9954 18.6736 24.2814 20.2538C23.5675 21.8341 23.325 23.5867 23.5833 25.3012C23.8415 27.0157 24.5893 28.6194 25.7372 29.9197C22.037 31.4131 18.937 34.0905 16.9229 37.5326C15.3177 34.8007 14.4696 31.6911 14.4657 28.5233C14.4657 23.7444 16.3658 19.1613 19.7479 15.7822C23.1299 12.403 27.717 10.5047 32.5 10.5047C37.283 10.5047 41.8701 12.403 45.2521 15.7822C48.6342 19.1613 50.5343 23.7444 50.5343 28.5233C50.5304 31.6911 49.6823 34.8007 48.0771 37.5326Z" fill="#6E7F99"/>
</g>
<defs>
<filter id="filter0_dii_2203_707" x="0" y="0" width="65" height="65" filterUnits="userSpaceOnUse" color-interpolation-filters="sRGB">
<feFlood flood-opacity="0" result="BackgroundImageFix"/>
<feColorMatrix in="SourceAlpha" type="matrix" values="0 0 0 0 0 0 0 0 0 0 0 0 0 0 0 0 0 0 127 0" result="hardAlpha"/>
<feOffset dy="4"/>
<feGaussianBlur stdDeviation="5"/>
<feComposite in2="hardAlpha" operator="out"/>
<feColorMatrix type="matrix" values="0 0 0 0 0 0 0 0 0 0 0 0 0 0 0 0 0 0 0.25 0"/>
<feBlend mode="normal" in2="BackgroundImageFix" result="effect1_dropShadow_2203_707"/>
<feBlend mode="normal" in="SourceGraphic" in2="effect1_dropShadow_2203_707" result="shape"/>
<feColorMatrix in="SourceAlpha" type="matrix" values="0 0 0 0 0 0 0 0 0 0 0 0 0 0 0 0 0 0 127 0" result="hardAlpha"/>
<feOffset dy="4"/>
<feGaussianBlur stdDeviation="2"/>
<feComposite in2="hardAlpha" operator="arithmetic" k2="-1" k3="1"/>
<feColorMatrix type="matrix" values="0 0 0 0 0 0 0 0 0 0 0 0 0 0 0 0 0 0 0.25 0"/>
<feBlend mode="normal" in2="shape" result="effect2_innerShadow_2203_707"/>
<feColorMatrix in="SourceAlpha" type="matrix" values="0 0 0 0 0 0 0 0 0 0 0 0 0 0 0 0 0 0 127 0" result="hardAlpha"/>
<feOffset dx="4" dy="-4"/>
<feGaussianBlur stdDeviation="2"/>
<feComposite in2="hardAlpha" operator="arithmetic" k2="-1" k3="1"/>
<feColorMatrix type="matrix" values="0 0 0 0 1 0 0 0 0 1 0 0 0 0 1 0 0 0 0.25 0"/>
<feBlend mode="normal" in2="effect2_innerShadow_2203_707" result="effect3_innerShadow_2203_707"/>
</filter>
</defs>
</svg>
