<svg width="33" height="26" viewBox="0 0 33 26" fill="none" xmlns="http://www.w3.org/2000/svg">
<path fill-rule="evenodd" clip-rule="evenodd" d="M24.8859 0.164971C23.1328 -1.93715e-05 20.9232 -1.07113e-05 18.1043 1.76449e-07H14.8957C12.0768 -1.07113e-05 9.86717 -1.93715e-05 8.11413 0.164971C6.32516 0.333342 4.87565 0.683099 3.63804 1.4642C2.88879 1.93708 2.22989 2.50945 1.68554 3.16031C1.43737 3.45703 1.22485 3.77041 1.04352 4.10396C0.488221 5.12539 0.240532 6.30982 0.11982 7.72224C-6.91864e-06 9.12431 -3.7308e-06 10.843 2.03122e-07 12.9621V13.0603C-1.23305e-05 15.509 -2.22998e-05 17.4285 0.189908 18.9514C0.383731 20.5054 0.786358 21.7646 1.68554 22.8397C2.22989 23.4905 2.88879 24.0629 3.63804 24.5358C4.87565 25.3169 6.32516 25.6667 8.11413 25.835C9.86714 26 12.0767 26 14.8955 26H18.1044C20.9232 26 23.1329 26 24.8859 25.835C26.6748 25.6667 28.1244 25.3169 29.362 24.5358C30.1112 24.0629 30.7701 23.4905 31.3145 22.8397C32.2136 21.7646 32.6163 20.5054 32.8101 18.9514C33 17.4285 33 15.5091 33 13.0605V12.9612C33 10.8276 33 9.09981 32.8776 7.69206C32.7542 6.27341 32.5009 5.08505 31.9327 4.06062C31.7566 3.74312 31.5518 3.44405 31.3145 3.16031C30.7701 2.50945 30.1112 1.93708 29.362 1.4642C28.1244 0.683099 26.6748 0.333342 24.8859 0.164971ZM4.99131 3.08224C5.77104 2.59012 6.76904 2.30327 8.36211 2.15334C9.97673 2.00137 12.0618 2 14.9651 2H18.0349C20.9382 2 23.0233 2.00137 24.6379 2.15334C26.231 2.30327 27.229 2.59012 28.0087 3.08224C28.5622 3.43159 29.049 3.85441 29.4513 4.33519L26.5393 6.86481C23.9581 9.10702 22.1024 10.716 20.5018 11.7769C18.9278 12.8201 17.7365 13.2386 16.5 13.2386C15.2635 13.2386 14.0722 12.8201 12.4982 11.7769C10.8976 10.716 9.04188 9.10702 6.46073 6.8648L3.54874 4.33519C3.95098 3.85441 4.43778 3.43159 4.99131 3.08224ZM30.3712 6.3645C30.4639 6.79147 30.5327 7.27855 30.5818 7.84272C30.6969 9.16657 30.6977 10.8198 30.6977 13C30.6977 15.5221 30.6961 17.3333 30.5212 18.7359C30.3486 20.1198 30.0183 20.9868 29.4518 21.6641C29.0495 22.1452 28.5625 22.5682 28.0087 22.9178C27.229 23.4099 26.231 23.6967 24.6379 23.8467C23.0233 23.9986 20.9382 24 18.0349 24H14.9651C12.0618 24 9.97673 23.9986 8.36211 23.8467C6.76904 23.6967 5.77104 23.4099 4.99131 22.9178C4.43752 22.5682 3.95051 22.1452 3.54816 21.6641C2.98165 20.9868 2.65144 20.1198 2.47884 18.7359C2.30391 17.3333 2.30233 15.5221 2.30233 13C2.30233 10.8353 2.30305 9.18992 2.41583 7.87032C2.46504 7.29446 2.53457 6.79847 2.62881 6.3645L4.89501 8.33311C7.40036 10.5095 9.36374 12.2151 11.1016 13.3669C12.8805 14.5459 14.5577 15.2386 16.5 15.2386C18.4423 15.2386 20.1195 14.5459 21.8984 13.3669C23.6362 12.2151 25.5996 10.5095 28.105 8.33314L30.3712 6.3645Z" fill="#2B2B2B" fill-opacity="0.8"/>
</svg>
