<svg width="33" height="31" viewBox="0 0 33 31" fill="none" xmlns="http://www.w3.org/2000/svg">
<path d="M9.20929 10.1923C9.20929 9.56681 9.72468 9.05978 10.3605 9.05978H22.6395C23.2753 9.05978 23.7907 9.56681 23.7907 10.1923C23.7907 10.8177 23.2753 11.3247 22.6395 11.3247H10.3605C9.72468 11.3247 9.20929 10.8177 9.20929 10.1923Z" fill="#2B2B2B" fill-opacity="0.8"/>
<path d="M9.20929 16.9871C9.20929 16.3616 9.72468 15.8546 10.3605 15.8546H22.6395C23.2753 15.8546 23.7907 16.3616 23.7907 16.9871C23.7907 17.6125 23.2753 18.1196 22.6395 18.1196H10.3605C9.72468 18.1196 9.20929 17.6125 9.20929 16.9871Z" fill="#2B2B2B" fill-opacity="0.8"/>
<path fill-rule="evenodd" clip-rule="evenodd" d="M13.3787 1.13615e-07H19.6213C21.7267 -6.90645e-06 23.3773 -1.23976e-05 24.704 0.106621C26.0549 0.215203 27.171 0.439971 28.1811 0.946314C29.8417 1.77871 31.1919 3.10694 32.038 4.74061C32.5527 5.73437 32.7812 6.83228 32.8916 8.16126C33 9.46639 33 11.0902 33 13.1615V15.0003C33 15.0752 33 15.1491 33 15.2221C33.0003 17.5605 33.0005 18.9868 32.6434 20.185C31.7976 23.0226 29.542 25.2416 26.6576 26.0736C25.4397 26.4249 23.9898 26.4247 21.6128 26.4244C21.5386 26.4244 21.4634 26.4244 21.3874 26.4244H20.545L20.4525 26.4245C19.1214 26.4329 17.8248 26.8417 16.7367 27.5959L16.6614 27.6487L12.6542 30.4645C10.345 32.0872 7.31046 29.7438 8.3644 27.1517C8.50606 26.8033 8.24525 26.4244 7.86383 26.4244H6.94021C3.10724 26.4244 2.98462e-07 23.3676 2.98462e-07 19.5968L1.1549e-07 13.1615C-7.02042e-06 11.0903 -1.26022e-05 9.46639 0.108381 8.16126C0.218755 6.83228 0.447232 5.73437 0.96193 4.74061C1.80807 3.10694 3.15821 1.77871 4.81885 0.946314C5.829 0.439971 6.94502 0.215204 8.29594 0.106622C9.62261 -1.23976e-05 11.2733 -6.90645e-06 13.3787 1.13615e-07ZM8.48342 2.36405C7.27488 2.46118 6.49557 2.64786 5.86408 2.96439C4.63665 3.57965 3.63872 4.56138 3.01331 5.76888C2.69155 6.39012 2.5018 7.15678 2.40306 8.3457C2.30322 9.54783 2.30232 11.0793 2.30232 13.2122V19.5968C2.30232 22.1167 4.37877 24.1594 6.94021 24.1594H7.86383C9.87406 24.1594 11.2486 26.1568 10.5021 27.9929C10.3021 28.4847 10.8778 28.9294 11.316 28.6215L15.3232 25.8057L15.4106 25.7445C16.8827 24.724 18.6369 24.1709 20.4377 24.1596L20.545 24.1594H21.3874C24.061 24.1594 25.151 24.1479 26.0098 23.9002C28.1418 23.2852 29.809 21.6451 30.4341 19.5477C30.6859 18.7028 30.6976 17.6305 30.6976 15.0003V13.2122C30.6976 11.0793 30.6967 9.54783 30.5969 8.3457C30.4982 7.15678 30.3084 6.39012 29.9866 5.76888C29.3612 4.56138 28.3633 3.57965 27.1359 2.96439C26.5044 2.64786 25.7251 2.46118 24.5165 2.36405C23.2946 2.26583 21.7378 2.26495 19.5697 2.26495H13.4302C11.2622 2.26495 9.70539 2.26583 8.48342 2.36405Z" fill="#2B2B2B" fill-opacity="0.8"/>
</svg>
