<svg width="55" height="62" viewBox="0 0 55 62" fill="none" xmlns="http://www.w3.org/2000/svg">
<g filter="url(#filter0_dii_2203_708)">
<path d="M27.0867 9.8186C20.8804 9.8186 15.8367 14.8624 15.8367 21.0686V26.4874C15.8367 27.6311 15.3492 29.3749 14.7679 30.3499L12.6117 33.9311C11.2804 36.1436 12.1992 38.5999 14.6367 39.4249C22.7179 42.1249 31.4367 42.1249 39.5179 39.4249C41.7867 38.6749 42.7804 35.9936 41.5429 33.9311L39.3867 30.3499C38.8242 29.3749 38.3367 27.6311 38.3367 26.4874V21.0686C38.3367 14.8811 33.2742 9.8186 27.0867 9.8186Z" stroke="#6E7F99" stroke-width="4" stroke-miterlimit="10" stroke-linecap="round"/>
<path d="M30.5562 10.3625C29.9749 10.1937 29.3749 10.0625 28.7562 9.9875C26.9562 9.7625 25.2312 9.89375 23.6187 10.3625C24.1624 8.975 25.5124 8 27.0874 8C28.6624 8 30.0124 8.975 30.5562 10.3625Z" stroke="#6E7F99" stroke-width="4" stroke-miterlimit="10" stroke-linecap="round" stroke-linejoin="round"/>
<path d="M32.7124 40.1001C32.7124 43.1938 30.1812 45.7251 27.0874 45.7251C25.5499 45.7251 24.1249 45.0876 23.1124 44.0751C22.0999 43.0626 21.4624 41.6376 21.4624 40.1001" stroke="#6E7F99" stroke-width="4" stroke-miterlimit="10"/>
</g>
<defs>
<filter id="filter0_dii_2203_708" x="0" y="0" width="54.0806" height="61.7251" filterUnits="userSpaceOnUse" color-interpolation-filters="sRGB">
<feFlood flood-opacity="0" result="BackgroundImageFix"/>
<feColorMatrix in="SourceAlpha" type="matrix" values="0 0 0 0 0 0 0 0 0 0 0 0 0 0 0 0 0 0 127 0" result="hardAlpha"/>
<feOffset dy="4"/>
<feGaussianBlur stdDeviation="5"/>
<feComposite in2="hardAlpha" operator="out"/>
<feColorMatrix type="matrix" values="0 0 0 0 0 0 0 0 0 0 0 0 0 0 0 0 0 0 0.25 0"/>
<feBlend mode="normal" in2="BackgroundImageFix" result="effect1_dropShadow_2203_708"/>
<feBlend mode="normal" in="SourceGraphic" in2="effect1_dropShadow_2203_708" result="shape"/>
<feColorMatrix in="SourceAlpha" type="matrix" values="0 0 0 0 0 0 0 0 0 0 0 0 0 0 0 0 0 0 127 0" result="hardAlpha"/>
<feOffset dy="4"/>
<feGaussianBlur stdDeviation="2"/>
<feComposite in2="hardAlpha" operator="arithmetic" k2="-1" k3="1"/>
<feColorMatrix type="matrix" values="0 0 0 0 0 0 0 0 0 0 0 0 0 0 0 0 0 0 0.25 0"/>
<feBlend mode="normal" in2="shape" result="effect2_innerShadow_2203_708"/>
<feColorMatrix in="SourceAlpha" type="matrix" values="0 0 0 0 0 0 0 0 0 0 0 0 0 0 0 0 0 0 127 0" result="hardAlpha"/>
<feOffset dx="4" dy="-4"/>
<feGaussianBlur stdDeviation="2"/>
<feComposite in2="hardAlpha" operator="arithmetic" k2="-1" k3="1"/>
<feColorMatrix type="matrix" values="0 0 0 0 1 0 0 0 0 1 0 0 0 0 1 0 0 0 0.25 0"/>
<feBlend mode="normal" in2="effect2_innerShadow_2203_708" result="effect3_innerShadow_2203_708"/>
</filter>
</defs>
</svg>
